<?xml version="1.0" encoding="utf-8"?>
<!-- Generator: Adobe Illustrator 27.5.0, SVG Export Plug-In . SVG Version: 6.00 Build 0)  -->
<svg version="1.1" id="Layer_1" xmlns="http://www.w3.org/2000/svg" xmlns:xlink="http://www.w3.org/1999/xlink" x="0px" y="0px"
	 viewBox="0 0 971.59 962.03" style="fill: #fff;" xml:space="preserve">
<path d="M971.59,477.2c-0.25,48.93-7.5,96.8-21.91,143.58c-8.39,27.23-33.32,41.42-59.37,33.87c-25.4-7.36-38.35-33.4-30.68-61.02
	c43.62-157.11,6.43-292.73-110.24-405.92c-48.48-47.04-107.25-76.96-173.03-92.73c-29.4-7.05-45.44-29.46-40.01-56.23
	c5.31-26.18,30.27-42.79,56.7-36.19c175.99,43.93,294.75,151.25,354.64,322.6C964.81,374.18,971.49,425.28,971.59,477.2z"/>
<path d="M469.12,962.03c-125.08-3.08-245.19-54.49-341.93-158.38c-25.77-27.67-14.52-69.45,20.8-78.7c19.1-5,35.32,0.92,48.59,15.41
	c30.71,33.53,66.33,60.64,106.36,82.23c149.61,80.71,342.91,50.99,461.2-71.14c3.86-3.99,7.61-8.09,11.58-11.96
	c18.91-18.42,47.62-18.8,66.14-0.94c18.19,17.55,19.39,46.01,1.92,65.38c-40.47,44.86-88.09,80.44-142.17,107.27
	C633.56,944.95,561.4,961.61,469.12,962.03z"/>
<path d="M0.04,491.09C-2.47,276.08,124.53,91.24,321.65,18.95c19.82-7.27,40.43-12.7,61-17.56c26.86-6.34,51.77,9.58,57.47,35.36
	c5.61,25.34-9.86,49.99-36.54,56.01c-81.73,18.45-151.43,57.86-207.23,120.27C121.07,297.23,86.46,396.06,95.87,508.97
	c2.23,26.76,8.65,53.32,14.88,79.56c6.79,28.61-5.35,53.94-31.55,61.45c-26.19,7.51-50.73-7.22-59.11-35.53
	C7.71,572.64,1.05,529.92,0.04,491.09z"/>
</svg>
