<?xml version="1.0" encoding="utf-8"?>
<!-- Generator: Adobe Illustrator 18.0.0, SVG Export Plug-In . SVG Version: 6.00 Build 0)  -->
<!DOCTYPE svg PUBLIC "-//W3C//DTD SVG 1.1//EN" "http://www.w3.org/Graphics/SVG/1.1/DTD/svg11.dtd">
<svg version="1.1" id="Layer_1" xmlns="http://www.w3.org/2000/svg" xmlns:xlink="http://www.w3.org/1999/xlink" x="0px" y="0px"
	 viewBox="0 0 1172 658.2" enable-background="new 0 0 1172 658.2" xml:space="preserve">
<g>
	<path fill="#FFFFFF" d="M0,501.9V66h38.4l101.3,295.6l14.1,45.1V66h24.8v435.8h-17.2L44.6,159.7L25.1,99.6v402.3H0z"/>
	<path fill="#FFFFFF" d="M235,66h25.1v435.8H235V66z"/>
	<path fill="#FFFFFF" d="M316.5,501.9V66h38.4l101.3,295.6l14.1,45.1V66h24.8v435.8h-17.2L361.1,159.7l-19.5-60.1v402.3H316.5z"/>
	<path fill="#FFFFFF" d="M551.5,66h178.6v25.1H576.6v180h117.9v25.1H576.6v180.8h80.5l-16.3,24.8h-89.3V66z"/>
</g>
<g>
	<path fill="#FFFFFF" d="M847.8,161.1c24.3,0,44.8,7.5,61.5,22.6c18.6,16.7,27.9,39,27.9,66.9V294c0,34.8-14,60.3-42,76.4
		c28,16.4,42,42,42,77v60.7c0,27.5-9.3,49.6-27.9,66.3c-16.7,15-37.2,22.6-61.5,22.6c-23.9,0-44.2-7.5-60.9-22.6
		c-18.6-16.7-27.9-38.8-27.9-66.3v-12.7h24.5v12.7c0,20.5,6.9,36.7,20.6,48.5c12,10.3,26.6,15.5,43.7,15.5c17.3,0,32-5.2,44-15.5
		c13.9-11.8,20.9-28,20.9-48.5v-60.7c0-20.5-6.8-36.7-20.3-48.5c-11.8-10.3-26.2-15.6-43.2-15.8h-44v-24.8l44-0.3
		c16.9-0.2,31.3-5.4,43.2-15.5c13.5-11.8,20.3-28,20.3-48.5v-43.4c0-20.7-7-37-20.9-48.8c-12-10.3-26.7-15.5-44-15.5
		c-17.1,0-21.5-2-33.5,8.3L847.8,161.1z"/>
	<path fill="#FFFFFF" d="M1082.5,161.1c24.3,0,44.8,8.8,61.5,26.5c18.6,19.4,27.9,45.1,27.9,77.3v11.6c0,26.7-8,48.8-24,66.3
		c-9.8,10.5-27.2,23-52.2,37.5c-26.1,15-44.1,28.2-53.9,39.5c-15.8,18.4-23.7,43-23.7,73.6v78.7H1172V597H993.7V493.5
		c0-36.7,9.6-66.5,28.8-89.4c11.7-13.4,32-28.4,60.9-45.1c22.4-13,37.4-23.5,45.1-31.6c12.6-13.5,18.9-30.5,18.9-50.8V265
		c0-25.4-7-45.4-20.9-60.1c-11.8-12.4-26.5-18.6-44-18.6c-17.1,0-31.7,6.3-43.7,18.9c-13.7,14.7-20.6,34.6-20.6,59.8v12.7h-24.5V265
		c0-32.2,9.3-57.9,27.9-77.3C1038.3,170,1058.7,161.1,1082.5,161.1z"/>
</g>
<polygon fill="#9B0A15" points="917.2,0 537.2,658.2 563.9,658.3 943.9,0 "/>
</svg>
